<?xml version="1.0" encoding="utf-8"?>
<svg width="24" height="24" viewBox="0 0 24 24" xmlns="http://www.w3.org/2000/svg">
    <path d="M22.15,3.05 C23.0888841,3.05 23.85,3.81111593 23.85,4.75 L23.85,4.75 L23.85,18.05 C23.85,18.9888841 23.0888841,19.75 22.15,19.75 L22.15,19.75 L1.85,19.75 C0.911115925,19.75 0.15,18.9888841 0.15,18.05 L0.15,18.05 L0.15,4.75 C0.15,3.81111593 0.911115925,3.05 1.85,3.05 L1.85,3.05 Z M22.15,10.744 L1.85,10.744 L1.85,18.05 L22.15,18.05 L22.15,10.744 Z M22.15,4.75 L1.85,4.75 L1.85,7.344 L22.15,7.344 L22.15,4.75 Z" fillRule="nonzero" fill="currentColor"></path>
</svg>