<?xml version="1.0" encoding="utf-8"?>
<svg width="24" height="24" viewBox="0 0 24 24" xmlns="http://www.w3.org/2000/svg">
    <path d="M14.216 0c3.381 0 6.208 1.188 6.208 3.093v14.435c0 1.559-1.876 2.63-4.429 2.975v.57a.83.83 0 01-.063.32C15.494 23.014 12.872 24 9.788 24s-5.706-.988-6.144-2.606a.83.83 0 01-.057-.216l-.007-.105v-8.827l.006-.153c.12-1.475 1.967-2.494 4.421-2.824V3.093l.007-.153C8.16 1.125 10.925 0 14.216 0zM9.788 19.495c-1.76 0-3.37-.322-4.509-.9l.001 2.32.006.052c.126.579 2.05 1.353 4.502 1.353s4.376-.774 4.501-1.353l.007-.06v-1.09a.85.85 0 01-.001-.13l.001-1.091c-1.139.577-2.748.899-4.508.899zm6.208-4.377v3.684c1.644-.266 2.728-.864 2.728-1.274v-2.986c-.732.282-1.666.472-2.728.576zm-1.7-.678c-1.139.577-2.748.898-4.508.898-1.76 0-3.37-.321-4.509-.898l.001 1.97.006.051c.126.58 2.05 1.353 4.502 1.353s4.376-.774 4.501-1.353l.007-.059zm-4.508-3.606c-2.537 0-4.508.828-4.508 1.412v-.006.015c.019.563 1.854 1.349 4.256 1.4l.252.003c2.537 0 4.508-.828 4.508-1.412s-1.971-1.412-4.508-1.412zm4.979-.645l-.207.006c.894.52 1.436 1.217 1.436 2.05l-.001-.005.002 1.186c.804-.091 1.51-.243 2.04-.436.256-.093.457-.191.59-.282l.072-.054c.015-.011.022-.016.025-.012v-3.34c-1.018.515-2.412.826-3.957.887zm3.957-4.903c-1.139.577-2.748.9-4.508.9-1.76 0-3.37-.323-4.51-.9l.002 1.821c0 .555 1.831 1.36 4.261 1.41a.859.859 0 01.247.042.842.842 0 01.245-.041c2.43-.05 4.263-.856 4.263-1.41zM14.216 1.68c-2.537 0-4.508.829-4.508 1.413 0 .583 1.97 1.412 4.508 1.412 2.537 0 4.508-.829 4.508-1.412 0-.584-1.971-1.413-4.508-1.413z" fillRule="nonzero" fill="currentColor"></path>
</svg>