<?xml version="1.0" encoding="utf-8"?>
<svg width="24" height="24" viewBox="0 0 24 24" xmlns="http://www.w3.org/2000/svg">
    <path d="M8.996 1.199l.116.051 3.878 2.067.441-.263a.85.85 0 01.717-.074l.115.05 5.092 2.673a.851.851 0 01.336 1.19l3.743 1.995a.85.85 0 01.14 1.407l-.098.07-7.957 4.837a.85.85 0 01-.752.065l-.103-.048-3.26-1.813v1.506l3.654 2.033 7.535-4.581a.85.85 0 01.977 1.386l-.094.067-7.957 4.838a.85.85 0 01-.752.065l-.103-.049-3.259-1.813v1.581l3.653 2.033 7.535-4.58a.85.85 0 01.977 1.385l-.094.067-7.957 4.838a.85.85 0 01-.752.065l-.103-.049-4.522-2.516a.847.847 0 01-.287-.26l-5.057-2.677a.85.85 0 01-.195-.142L.587 14.37a.85.85 0 01.722-1.535l.104.05 2.933 1.63v-1.582l-3.759-2.09a.85.85 0 01.722-1.535l.104.05 2.933 1.629V9.479L.587 7.389a.85.85 0 01-.124-1.401l.098-.069 7.712-4.647a.85.85 0 01.723-.073zm4.898 3.558L6.045 9.46v6.021l3.659 1.937v-5.426a.845.845 0 01.034-.269l.005-.015a.665.665 0 01.035-.095c.004-.007.008-.013.01-.02a.426.426 0 01.023-.045l.025-.04a.85.85 0 01.014-.022l-.04.062a.854.854 0 01.194-.234l-.083.08a.843.843 0 01.07-.07l.013-.01.007-.008a.845.845 0 01.06-.045l.018-.011 7.195-4.714-3.39-1.779zm4.26 3.242L12.196 11.9l2.861 1.592 6.261-3.806-3.164-1.687zM8.737 2.977l-6.041 3.64L5.18 7.998l6.108-3.661-2.551-1.36z" fillRule="nonzero" fill="currentColor"></path>
</svg>