<?xml version="1.0" encoding="utf-8"?>
<svg xmlns="http://www.w3.org/2000/svg" viewBox="0 0 24 24" aria-hidden="true">
    <path d="M19.529 0a4.454 4.454 0 013.173 1.3 4.45 4.45 0 01-.036 6.317L8.287 21.996a.843.843 0 01-.386.22l-6.848 1.756a.843.843 0 01-1.026-1.025l1.755-6.848a.843.843 0 01.22-.387L16.376 1.34A4.453 4.453 0 0119.53 0zM3.048 17.946l-1.034 4.039 4.041-1.037-3.007-3.002zM16.567 3.532L3.792 16.306l3.902 3.896 12.772-12.77-3.899-3.9zm2.973-1.846l-.2.009a2.769 2.769 0 00-1.575.652l3.888 3.887c.377-.442.606-.994.652-1.575l.01-.2a2.763 2.763 0 00-.805-1.967 2.766 2.766 0 00-1.97-.806z" fill="currentColor"></path>
</svg>