<?xml version="1.0" encoding="utf-8"?>
<svg width="24" height="24" viewBox="0 0 24 24" xmlns="http://www.w3.org/2000/svg">
    <path d="M4.172 6.255l.107.007 5.326.651a.845.845 0 01-.1 1.683L9.4 8.589 5.56 8.12l.745 1.662a.841.841 0 01-.032.751l-.062.096-.16.208-.271.344-.152.187c-.45.548-.933 1.096-1.434 1.61-.153.157-.306.31-.458.456-.6.575-1.198.947-1.762 1.154l-.226.074.304 2.602.062.018c.637.194 1.427.527 2.296 1.044l.264.16c.516.323 1.164.82 1.923 1.458a59.853 59.853 0 011.61 1.414l.74.684.287.27h.297l.741-1.262a6.035 6.035 0 01-1.096-.502.842.842 0 01-.29-1.158.85.85 0 011.163-.29c1.66.993 5.405 1.166 7.377-.001a.85.85 0 011.162.294c.24.401.107.92-.296 1.157a6.17 6.17 0 01-.875.425l1.087 1.337h.493l.213-.286.106-.147c.431-.605.863-1.284 1.266-2.021.71-1.302 1.25-2.637 1.551-3.961.695-3.06-.8-5.387-4.075-7.223a.842.842 0 01-.323-1.15.85.85 0 011.154-.321c3.862 2.164 5.784 5.16 4.897 9.066-.338 1.49-.935 2.966-1.715 4.396-.437.8-.904 1.535-1.373 2.191l-.227.313c-.177.238-.318.416-.414.53a.849.849 0 01-.543.295l-.106.007H18.1a.85.85 0 01-.585-.233l-.074-.08-1.588-1.955a.84.84 0 01-.154-.29 11.925 11.925 0 01-3.742.019.688.688 0 01-.036.11l-.052.103-1.12 1.908a.848.848 0 01-.62.41l-.112.008H8.895a.85.85 0 01-.59-.238l-.701-.662a62.5 62.5 0 00-1.622-1.46l-.478-.407-.452-.373a13.93 13.93 0 00-1.28-.945 9.606 9.606 0 00-1.915-.93 5.289 5.289 0 00-.726-.21.846.846 0 01-.674-.625l-.02-.108L0 14.302l.002-.21c.012-.088.033-.19.076-.308.122-.334.325-.603.738-.67l.13-.014c.41-.022.963-.26 1.613-.883.138-.133.278-.272.418-.416.464-.476.917-.99 1.338-1.503l.235-.29-1.148-2.565a.845.845 0 01.77-1.188zM6.85 12a.85.85 0 110 1.7.85.85 0 010-1.7zm10.942-1.713c.427.19.619.69.428 1.115a.849.849 0 01-1.12.427c-1.56-.695-3.223-.695-4.774-.271a6.824 6.824 0 00-.64.206l-.147.06a.849.849 0 01-1.125-.414.843.843 0 01.416-1.12c.212-.096.57-.23 1.048-.36 1.897-.519 3.945-.519 5.914.357zM14.268 0a4.203 4.203 0 014.212 4.195 4.203 4.203 0 01-4.212 4.195 4.203 4.203 0 01-4.211-4.195A4.203 4.203 0 0114.268 0zm0 1.688a2.512 2.512 0 00-2.516 2.507 2.512 2.512 0 002.516 2.507 2.511 2.511 0 002.517-2.507 2.511 2.511 0 00-2.517-2.507z" fillRule="nonzero" fill="currentColor"></path>
</svg>